# xmcd
#
# Track frame offsets: 
#        150
#        19804
#        38093
#        54368
#        68141
#        86484
#        103756
#        116067
#        138354
#        153718
#        167075
#        183414
#        197608
#        214866
#        240480
#
# Disc length: 3354 seconds
#
# Revision: 0
# Processed by: cddbd v1.5.2PL0 Copyright (c) Steve Scherf et al.
# Submitted via: ExactAudioCopy v1.3
#
DISCID=cc0d180f
DTITLE=Crazy Hambones - Blowing The Family Jewels
DYEAR=2009
DGENRE=Blues
TTITLE0=Hear Me Calling
TTITLE1=One Sweet Thing
TTITLE2=Ramblin' Blues
TTITLE3=Let' s Do The Boogie
TTITLE4=My Babe
TTITLE5=If I Had Listened
TTITLE6=Be My Girl
TTITLE7=My Fault
TTITLE8=Courting In Cadillac
TTITLE9=Hambone Boogie
TTITLE10=30 Days
TTITLE11=Come Back Baby
TTITLE12=Roll Roll Roll
TTITLE13=Sun' s Gonna Shine
TTITLE14=Sit Down Easy
EXTD=
EXTT0=
EXTT1=
EXTT2=
EXTT3=
EXTT4=
EXTT5=
EXTT6=
EXTT7=
EXTT8=
EXTT9=
EXTT10=
EXTT11=
EXTT12=
EXTT13=
EXTT14=
PLAYORDER=
